# xmcd
#
# Track frame offsets:
#	182
#	11140
#	26655
#	38575
#	50322
#	59767
#	73930
#	87955
#	106670
#	121210
#	135682
#	148477
#	161082
#	173325
#	190822
#
# Disc length: 2759 seconds
#
# Revision: 1
# Processed by: cddbd v1.5.2PL0 Copyright (c) Steve Scherf et al.
# Submitted via: audiograbber 1.83.01
#
DISCID=d10ac50f
DTITLE=AA.VV. - 056 - Saluto dall' Italia
DYEAR=1994
DGENRE=Folk
TTITLE0=Coro Grigna - Vola vola
TTITLE1=G.Christian - Giorgio del Lago Maggiore
TTITLE2=M.Paris - 'A tazza 'e ccafé
TTITLE3=Quartetto Cetra - Crapa pelada
TTITLE4=G.Vanorio - Pusilleco addiruso
TTITLE5=C.Jaione - La postina della Val Gardena
TTITLE6=D.Modugno - Vitti 'na crozza
TTITLE7=R.Fucci - Roma di notte
TTITLE8=L.Tajoli - Grazie San Remo
TTITLE9=C.Villa - Piazza di Spagna
TTITLE10=F.Cigliano - L'aperitivo a Margellina
TTITLE11=A.Alvi - Calabrisedda mia
TTITLE12=C.Villa - Buona notte Cosenza
TTITLE13=G.Christian - Marechiaro marechiaro
TTITLE14=G.Vanorio - Serenata a Surriento
EXTD=
EXTT0=
EXTT1=
EXTT2=
EXTT3=
EXTT4=
EXTT5=
EXTT6=
EXTT7=
EXTT8=
EXTT9=
EXTT10=
EXTT11=
EXTT12=
EXTT13=
EXTT14=
PLAYORDER=
